<svg xmlns="http://www.w3.org/2000/svg" viewBox="0 0 512 512">
  <rect width="512" height="512" rx="96" fill="#fffdf9"/>
  <rect x="54" y="54" width="404" height="404" rx="76" fill="#f7f2ea"/>
  <path fill="#863bff" d="M274.4 406.8c-7.5 9.5-22.9 4.2-22.9-7.9V283.1a25.6 25.6 0 0 0-25.6-25.6H97.5c-10.4 0-16.5-11.7-10.4-20.2l84.2-117.9c12-16.9 0-40.3-20.8-40.3H65.8c-10.4 0-16.5-11.7-10.4-20.2l20.8-29.2A25.6 25.6 0 0 1 97 19h326c10.4 0 16.5 11.7 10.4 20.2l-84.3 117.9c-12 16.9 0 40.3 20.8 40.3h64.4c10.7 0 16.7 12.3 10.1 20.7l-170 188.7z"/>
  <path fill="#47bfff" fill-opacity=".72" d="M335 140c35-26 71-38 88-25 17 13 8 48-21 77-28 28-66 40-86 26-20-15-14-52 19-78z"/>
  <path fill="#ede6ff" fill-opacity=".9" d="M107 312c63-43 139-52 169-19 30 32 5 92-58 135-62 43-138 52-168 20-30-33-5-93 57-136z"/>
</svg>
